<?xml version="1.0" encoding="UTF-8"?>
<svg id="Layer_1" data-name="Layer 1" xmlns="http://www.w3.org/2000/svg" viewBox="0 0 36.04 14.94">
  <defs>
    <style>
      .cls-1 {
        fill: #ddd;
      }
    </style>
  </defs>
  <path class="cls-1" d="M34.52,9.51l-.84,1.55h-8.17c-.36,0-.56-.29-.47-.63.01-.04.02-.09.05-.13l.33-.61c.91-1.67,2.85-2.54,4.57-3.3,1.45-.65,2.82-1.26,3.37-2.28.3-.54.24-.89.14-1.08-.14-.28-.47-.44-.92-.44-.88,0-1.62.45-2.11,1.27h-1.84c1.07-2.16,3.15-2.94,4.77-2.94s2.52,1.06,2.17,2.41c-.7,2.67-3.44,3.87-5.5,4.69-.85.34-1.96.98-2.35,1.49h6.8Z"/>
  <path class="cls-1" d="M26.43,3.83l1.02-1.99h-1.86l-.47.91c-.38.72-.93,1.08-1.66,1.08h-.82l-.75,1.37h1.97l-1.73,3.35c-.55,1.07-1.3,1.21-1.96,1.21h-1.63l.24-.29c.53-.63.88-1.31,1.09-2.06.76-2.8-1.09-3.81-2.54-3.81-.62,0-1.28.18-1.94.55l-.48.26.29-.63h-1.87l-2.11,4.61c-.5,1.07-1.28,1.22-1.97,1.22h-.74c-.18-.01-.32-.09-.4-.23-.1-.17-.07-.41.05-.66l1.33-2.73c.28-.56.15-1.01,0-1.3-.35-.64-1.21-1.06-2.19-1.06-.56,0-1.05.1-1.47.29l-.43.2,1.27-2.74c.17-.38-.02-.73-.41-.73h-3.93l-.77,1.64h2.84L.34,11.16h1.84l2.58-5.57.08-.05c.31-.19.74-.41,1.38-.41s1.05.19,1.23.52c.14.3.09.7-.15,1.17l-1.62,3.14c-.14.25-.17.47-.08.64.14.29.59.45,1.22.45h2.06c.32,0,.61-.02.89-.05l.28-.03-1.52,3.33h1.84l2.09-4.5.18.36c.33.67,1.47,1.04,2.38,1.05h.37s4.39,0,4.39,0c2.56,0,3.4-1.16,4.09-2.44l.07-.11,1.78-3.47h1.89l.74-1.37h-1.9ZM15.28,9.74c-1.3,0-2.07-1.03-1.73-2.31.04-.14.09-.27.2-.5.52-1.05,1.69-1.81,2.79-1.81,1.3,0,2.07,1.04,1.73,2.31s-1.68,2.31-2.98,2.31Z"/>
</svg>