<?xml version="1.0" encoding="UTF-8"?>
<svg id="Layer_1" data-name="Layer 1" xmlns="http://www.w3.org/2000/svg" viewBox="0 0 710.54 211.95">
  <defs>
    <style>
      .cls-1 {
        fill: #ddd;
      }
    </style>
  </defs>
  <path class="cls-1" d="M17.7,154.61c-1.24-1.19-2.08-2.91-1.98-4.77.19-3.35,2.93-5.81,6.28-5.62,1.49.08,2.76.71,3.65,1.51,11.37,10.33,26.97,14.93,37.76,15.52,4.65.26,6.53-.01,7.12-.54,9.02-7.89,24.51-31.66,39.64-58.81-8.57-.29-16.76-.55-23.85-.57-11.19-.06-34.11-.58-41.05,6.87-1.19,1.24-2.91,2.08-4.77,1.98-3.35-.19-5.81-2.93-5.62-6.28.08-1.49.71-2.76,1.51-3.65,10.92-11.9,39.04-10.9,49.85-10.86,9.13.13,19.57.34,30.37.75,11.64-21.55,22.79-44.26,29.95-62.52,1.06-2.37,3.39-3.92,5.99-3.77,3.35.19,5.81,2.93,5.62,6.28-.04.74-.27,1.48-.49,2.03-6.91,16.97-16.84,37.87-27.67,58.35l32.58,1.24c14.14.6,25.69,1.05,31.28,1.17l16.72-36.75c.87-2.19,3.19-3.74,5.79-3.6,3.35.19,5.81,2.93,5.62,6.28-.04.74-.27,1.48-.49,2.21l-45.06,99.04c-.87,2.19-3.19,3.74-5.79,3.6-3.35-.19-5.81-2.93-5.62-6.28.04-.74.27-1.48.5-2.21l23.02-50.45-26.43-1.09c-11.73-.46-25.33-.84-38.54-1.39-17,30.77-34.77,58.52-45.35,67.64-2.93,2.45-8.04,3.66-15.48,3.25-12.46-.69-31.37-6.21-45.06-18.54Z"/>
  <path class="cls-1" d="M203.87,145.49c0-.93.19-1.86.56-2.61l37.63-78.42c.93-2.05,2.98-3.54,5.4-3.54,3.35,0,5.96,2.61,5.96,5.96,0,.93-.19,1.86-.56,2.61l-17.88,37.44c32.23-8.19,76.19-31.67,77.31-38.74.18-.75-27.01-27.2-117.17-27.2-3.35,0-5.96-2.61-5.96-5.96s2.61-5.96,5.96-5.96c97.24,0,130.39,31.67,129.09,40.98-2.42,14.16-51.6,39.49-85.87,48.25-3.72.93-6.15.37-6.33-1.3l-.56-2.61-16.21,33.53c-.93,2.05-2.98,3.54-5.4,3.54-3.35,0-5.96-2.61-5.96-5.96Z"/>
  <path class="cls-1" d="M302.44,122.95c0-29.25,31.29-49.36,60.73-51.22h.75c3.35-.19,5.96,2.61,5.96,5.96,0,2.98-2.23,5.59-5.22,5.96-26.08,3.17-50.29,17.32-50.29,39.3,0,4.66.93,5.78,3.91,5.78,4.29,0,26.82-16.02,42.47-32.79l.75-1.49c1.3-2.79,2.98-5.22,5.77-5.4,11.92-.74,12.11,3.73,5.78,10.99l-2.42,2.79c-1.49,2.79-2.98,5.77-4.47,8.57-3.35,6.52-6.15,11.73-7.64,15.46,9.31-3.72,25.52-16.58,45.08-33.34,1.12-.93,2.42-1.49,3.91-1.49,3.35,0,5.96,2.61,5.96,5.96,0,1.86-.74,3.35-2.05,4.47-23.1,19.93-44.34,37.07-57.19,37.26-5.4,0-8.76-3.72-8.76-8.76,0-1.86.37-3.91,1.12-6.15-11.73,9.13-23.1,15.84-28.31,15.84-8.19,0-15.83-6.71-15.83-17.7Z"/>
  <path class="cls-1" d="M425.95,129.29c0-5.78,5.22-16.21,12.85-32.41.93-1.86,1.3-3.17,1.68-3.91-.37.37-1.12.37-3.17.18-5.03-.37-9.31-.75-13.23-1.3l-.93,1.12-11.74,9.69c-1.12.93-2.42,1.49-3.91,1.49-3.35,0-5.96-2.61-5.96-5.96,0-1.86.75-3.54,2.05-4.47l5.59-4.66c-4.66-1.86-5.77-4.28-5.77-7.45,0-6.89,15.83-13.04,21.61-13.04,3.91,0,7.82,2.98,7.82,7.26,0,1.49-.19,3.17-.75,5.03l5.96.37c8.57.56,14.34,3.35,14.34,10.8,0,2.42-.93,5.77-2.79,10.06-4.29,8.94-7.45,15.46-9.31,20.12,2.79-2.23,6.52-5.4,12.11-10.06,5.77-5.03,13.04-11.18,22.35-18.63.93-.75,2.23-1.3,3.72-1.3,3.35,0,5.96,2.61,5.96,5.96,0,1.86-.93,3.54-2.23,4.66-9.13,7.45-16.39,13.41-22.17,18.44-13.41,11.18-19.37,16.39-25.89,16.39-4.84,0-8.19-3.35-8.19-8.38Z"/>
  <path class="cls-1" d="M460.23,129.29c0-6.33,6.15-19.37,17.7-43.22h-4.1c-3.35,0-5.96-2.61-5.96-5.96s2.61-5.96,5.96-5.96h9.87l.75-1.49,4.1-8.38c.93-2.05,2.98-3.54,5.4-3.54,3.35,0,5.96,2.61,5.96,5.96,0,.93-.19,1.86-.56,2.79l-2.24,4.47c6.15-.19,12.3-.75,17.88-1.68l1.12-.19c3.35,0,5.96,2.61,5.96,5.96,0,2.98-2.05,5.4-5.03,5.96-8.01,1.49-16.95,1.86-25.89,2.05-9.5,19.74-15.27,31.67-17.7,38.19,8.01-3.54,22.73-13.23,49.18-31.11.93-.56,2.05-.93,3.35-.93,3.35,0,5.96,2.61,5.96,5.96,0,2.05-1.12,3.91-2.79,5.03-33.72,22.73-50.67,34.27-60.54,34.46-4.84.19-8.38-3.35-8.38-8.38Z"/>
  <path class="cls-1" d="M460.98,181.81c0-9.69,24.77-20.86,52.16-35.02,12.85-6.52,27.2-13.97,40.98-21.42l6.71-16.58c-19.19,19.19-36.32,28.68-44.33,28.87-5.03.19-8.57-3.35-8.57-8.57,0-6.71,6.7-20.3,18.81-45.64l2.79-5.77c.93-2.05,2.98-3.54,5.4-3.54,3.35,0,5.96,2.61,5.96,5.96,0,.93-.19,1.86-.56,2.61l-2.79,5.96c-8.94,18.63-14.34,29.8-16.58,35.95,10.06-3.91,30.18-17.51,50.67-42.66l1.3-3.17c1.49-3.35,4.1-4.66,6.89-4.66,12.67,0,11.18,7.08,0,18.07l-9.13,23.66c12.85-7.45,24.4-15.09,33.72-22.35,1.12-.75,2.24-1.3,3.72-1.3,3.35,0,5.96,2.61,5.96,5.96,0,1.86-.93,3.54-2.23,4.66-10.25,8.19-29.62,19.74-48.06,30.18l-13.41,33.16c-9.69,23.66-23.47,31.11-46.94,31.11-18.81,0-42.47-4.1-42.47-15.46ZM539.21,161.7l8.01-19.56c-13.97,7.64-25.33,13.6-28.68,15.27-27.38,14.16-45.64,23.47-45.64,24.4,0,.75,16.2,3.54,30.55,3.54,19.93,0,27.94-4.47,35.76-23.66ZM518.54,157.41"/>
  <path class="cls-1" d="M638.79,187.62c-21.87,2.69-45.84,3.14-67.9,4.19-7.49.65-15.28-7.61-10.91-15.94,5.45-8.57,14.45-14.01,21.72-19.99,27.11-20.59,56.26-40.63,79.83-65.06,9.4-10.31,20.32-22.5,20.93-36.56-.45-1.27-1.96-2.01-4.31-2.04-6.18.02-12.61,1.13-18.79,2.97-12.42,3.71-24,10.39-33.64,19.15-2.21,2.06-5.69,1.91-7.72-.33-1.97-2.17-1.85-5.5.22-7.54,10.55-10.33,23.51-18.13,37.66-22.58,12.85-4.15,38.3-9.2,38.94,11.34-2.92,38.48-59.95,76.27-88.41,98.82-10.2,8.05-26.1,18.33-34.41,27.77.01-.04-.37.53.02-.18.28-.85.16-1.58-.36-2.37-.88-1.12-1.66-.85-.79-.88,0,0,5.18-.23,5.18-.23,20.14-.86,42.16-2.14,62.23-1.42,6.64.26,7.04,10,.49,10.86h0Z"/>
  <path class="cls-1" d="M579.45,174.5c.12.16-2.16,1.63-1.82,2.62.3.88,2.45.7,2.46,1,.02.49-6,1.77-6.42.66-.46-1.17,5.59-4.53,5.78-4.28Z"/>
</svg>