<?xml version="1.0" encoding="UTF-8"?>
<svg id="Layer_1" data-name="Layer 1" xmlns="http://www.w3.org/2000/svg" viewBox="0 0 42.23 14.94">
  <defs>
    <style>
      .cls-1 {
        fill: #ddd;
      }
    </style>
  </defs>
  <path class="cls-1" d="M40.47,9.51l-.98,1.55h-9.59c-.42,0-.66-.29-.55-.63.01-.04.03-.09.05-.13l.39-.61c1.07-1.67,3.35-2.54,5.36-3.3,1.7-.65,3.31-1.26,3.96-2.28.35-.54.28-.89.17-1.08-.16-.28-.55-.44-1.07-.44-1.04,0-1.91.45-2.48,1.27h-2.16c1.26-2.16,3.7-2.94,5.6-2.94s2.96,1.06,2.54,2.41c-.82,2.67-4.03,3.87-6.45,4.69-1,.34-2.3.98-2.76,1.49h7.98Z"/>
  <path class="cls-1" d="M30.97,3.83l1.19-1.99h-2.18l-.55.91c-.44.72-1.1,1.08-1.95,1.08h-.96l-.88,1.37h2.31l-2.03,3.35c-.65,1.07-1.53,1.21-2.3,1.21h-1.92l.28-.29c.62-.63,1.04-1.31,1.28-2.06.89-2.8-1.29-3.81-2.98-3.81-.73,0-1.5.18-2.27.55l-.56.26.34-.63h-2.19l-2.47,4.61c-.59,1.07-1.5,1.22-2.31,1.22h-.87c-.21-.01-.38-.09-.47-.23-.11-.17-.08-.41.06-.66l1.56-2.73c.33-.56.18-1.01,0-1.3-.42-.64-1.42-1.06-2.57-1.06-.66,0-1.23.1-1.72.29l-.5.2,1.49-2.74c.2-.38-.03-.73-.48-.73H2.71l-.9,1.64h3.33L.34,11.16h2.16l3.03-5.57.1-.05c.36-.19.87-.41,1.62-.41s1.24.19,1.44.52c.17.3.11.7-.17,1.17l-1.91,3.14c-.16.25-.2.47-.1.64.17.29.69.45,1.43.45h2.42c.38,0,.72-.02,1.04-.05l.33-.03-1.79,3.33h2.16l2.45-4.5.21.36c.38.67,1.73,1.04,2.8,1.05h.44s5.16,0,5.16,0c3,0,3.99-1.16,4.8-2.44l.08-.11,2.08-3.47h2.22l.87-1.37h-2.23ZM17.87,9.74c-1.52,0-2.43-1.03-2.03-2.31.04-.14.11-.27.23-.5.61-1.05,1.98-1.81,3.27-1.81,1.52,0,2.43,1.04,2.03,2.31s-1.98,2.31-3.5,2.31Z"/>
</svg>