<?xml version="1.0" encoding="UTF-8"?>
<svg id="Layer_1" data-name="Layer 1" xmlns="http://www.w3.org/2000/svg" viewBox="0 0 35.54 14.94">
  <defs>
    <style>
      .cls-1 {
        fill: #ddd;
      }
    </style>
  </defs>
  <g>
    <path class="cls-1" d="M25.08,3.83l.47-1.99h-1.83l-.22.91c-.18.72-.63,1.08-1.35,1.08h-.81l-.37,1.37h1.94l-.81,3.35c-.26,1.07-.96,1.21-1.61,1.21h-1.61l.16-.29c.35-.63.52-1.31.52-2.06,0-2.8-2.1-3.81-3.52-3.81-.61,0-1.21.18-1.76.55l-.4.26.12-.63h-1.84l-.84,4.61c-.21,1.07-.93,1.22-1.61,1.22h-.73c-.18-.01-.34-.09-.45-.23-.14-.17-.18-.41-.13-.66l.58-2.73c.13-.56-.12-1.01-.34-1.3-.52-.64-1.48-1.06-2.44-1.06-.55,0-1.01.1-1.37.29l-.37.2.52-2.74c.07-.38-.22-.73-.6-.73h-1.1l-1.95,10.51h1.81l1.05-5.57.07-.05c.25-.19.62-.41,1.25-.41s1.09.19,1.35.52c.22.3.28.7.17,1.17l-.76,3.14c-.07.25-.04.47.09.64.22.29.7.45,1.32.45h2.03c.32,0,.6-.02.86-.05l.27-.03-.61,3.33h1.81l.85-4.5.27.36c.5.67,1.73,1.04,2.63,1.05h.37s4.33,0,4.33,0c2.52,0,3.04-1.16,3.38-2.44l.04-.11.82-3.47h1.86l.36-1.37h-1.87ZM15.67,9.74c-1.28,0-2.32-1.03-2.32-2.31,0-.14.02-.27.06-.5.23-1.05,1.18-1.81,2.26-1.81,1.28,0,2.32,1.04,2.32,2.31s-1.04,2.31-2.32,2.31Z"/>
    <path class="cls-1" d="M34.58,9.51l-.41,1.55h-8.05c-.35,0-.63-.29-.63-.63,0-.04,0-.09.01-.13l.16-.61c.45-1.67,2.13-2.54,3.62-3.3,1.25-.65,2.44-1.26,2.71-2.28.15-.54,0-.89-.15-1.08-.21-.28-.58-.44-1.02-.44-.87,0-1.48.45-1.74,1.27h-1.81c.48-2.16,2.32-2.94,3.91-2.94s2.77,1.06,2.78,2.41c.03,2.67-2.35,3.87-4.16,4.69-.75.34-1.67.98-1.92,1.49h6.7Z"/>
  </g>
  <polygon class="cls-1" points="3.93 2.28 1.17 2.28 1.49 .65 4.25 .65 3.93 2.28"/>
</svg>